. 
  
http://www.torrentday.com/        :     The Hottest Private Tracker On The Net!!!


               www . TorrentDay . Com 
(((((((((((((= Enjoy No RAR releases =))))))))))))))))))))


...................................NFO:....................................

.[img]http://img258.imageshack.us/img258/1384/stonebluray.jpg[/img]

Stone 2010 BDRip XVID AC3 HQ Hive-CM8



[b]Thx Hive

CM8 Doing It Right The First Time :D

Why download a touched up rip of a rip BRrip
Get the real deal BDRip
Enjoy

Source Bluray

Video: 720x304 @bitrate 1900 2pass
Audio: True HD AC3 640 to AC3 5.1 @448
Sample: yes included
Subs: yes in srt /subs[/b]


[url]http://www.imdb.com/title/tt1423995/[/url]


General
Complete name                    : Stone.2010.BDRip.XVID.AC3.HQ.Hive-CM8.avi
Format                           : AVI
Format/Info                      : Audio Video Interleave
File size                        : 1.77 GiB
Duration                         : 1h 45mn
Overall bit rate                 : 2 417 Kbps
Writing application              : Nandub v1.0rc2
Writing library                  : Nandub build 1853/release

Video
ID                               : 0
Format                           : MPEG-4 Visual
Format profile                   : Advanced Simple@L5
Format settings, BVOP            : Yes
Format settings, QPel            : Yes
Format settings, GMC             : No warppoints
Format settings, Matrix          : Default (H.263)
Muxing mode                      : Packed bitstream
Codec ID                         : XVID
Codec ID/Hint                    : XviD
Duration                         : 1h 45mn
Bit rate                         : 1 959 Kbps
Width                            : 720 pixels
Height                           : 304 pixels
Display aspect ratio             : 2.40:1
Frame rate                       : 23.976 fps
Color space                      : YUV
Chroma subsampling               : 4:2:0
Bit depth                        : 8 bits
Scan type                        : Progressive
Bits/(Pixel*Frame)               : 0.373
Stream size                      : 1.44 GiB (81%)
Writing library                  : XviD 1.2.1 (UTC 2008-12-04)

Audio
ID                               : 1
Format                           : AC-3
Format/Info                      : Audio Coding 3
Mode extension                   : CM (complete main)
Codec ID                         : 2000
Duration                         : 1h 45mn
Bit rate mode                    : Constant
Bit rate                         : 448 Kbps
Channel(s)                       : 6 channels
Channel positions                : Front: L C R, Side: L R, LFE
Sampling rate                    : 48.0 KHz
Bit depth                        : 16 bits
Stream size                      : 336 MiB (19%)
Alignment                        : Split accross interleaves
Interleave, duration             : 42 ms (1.00 video frame)
Interleave, preload duration     : 500 ms



Robert De Niro... Jack
Edward Norton... Stone
Milla Jovovich... Lucetta
Frances Conroy... Madylyn
Enver Gjokaj... Young Jack
Pepper Binkley... Young Madylyn
Sandra Love Aldridge... Miss Dickerson
Greg Trzaskoma... Guard Peters
Rachel Loiselle... Candace  



A convicted arsonist looks to manipulate a parole officer into a plan 
to secure his parole by placing his beautiful wife in the lawman's path.  




[img]http://img214.imageshack.us/img214/5246/ststst.png[/img]
[img]http://img17.imageshack.us/img17/2872/stststst.png[/img]
[img]http://img251.imageshack.us/img251/8814/ststststst.png[/img]
[img]http://img227.imageshack.us/img227/7305/stststststst.png[/img]
[img]http://img340.imageshack.us/img340/6932/12036920.png[/img]
[img]http://img217.imageshack.us/img217/857/stst.png[/img]
[img]http://img9.imageshack.us/img9/7166/ststssttststst.png[/img]
[img]http://img27.imageshack.us/img27/2565/ststssttstststst.png[/img]




Greetz

iNK,LUSi,,MAGNET,CLASSiFiED,THC,LEGi0N,IMAGiNE,ViSiON,WBZ,FLAWL3SS,NOVA
Rapeseed,D2U,SAFC,goldadvance,MEMORY100,KaN1vE,Unevano,Pinnz,Wayne,Mr Hive
and all P2P groups 
Great Work Guys :D